<svg id="Group_349" data-name="Group 349" xmlns="http://www.w3.org/2000/svg" width="71.808" height="46" viewBox="0 0 71.808 46">
  <path id="Path_1426" data-name="Path 1426" d="M66,114.519c.983-3,1.966-5.982,2.949-8.987,1.123-3.4,2.275-6.768,3.426-10.194,1.488,0,2.921-.056,4.353.028.281.028.7.477.814.814,1.853,5.392,3.651,10.812,5.476,16.232a.922.922,0,0,0,.365.534V95.31h1.853c2.078,0,4.128-.028,6.206.028a5.45,5.45,0,0,1,5.448,3.819,6.469,6.469,0,0,1-2.134,7.189l-.337.253c1.348,2.415,2.668,4.83,4.156,7.526.534-6.431,1.039-12.553,1.545-18.816,1.6,0,3.173-.028,4.746.028.2,0,.477.449.562.73,1.1,3.23,2.162,6.459,3.23,9.661.056.14.112.309.225.646.562-1.657,1.039-3.145,1.545-4.634.646-1.938,1.292-3.847,1.994-5.757a1.21,1.21,0,0,1,.814-.674c1.432-.056,2.864-.028,4.409-.028.534,6.431,1.067,12.806,1.629,19.181H114.64c-.225-3.51-.449-7.049-.7-10.559a5.045,5.045,0,0,0-.056-.618,16.094,16.094,0,0,0-1.011,2.556c-.309.871-.618,1.713-.927,2.556-1.1,3.061-1.1,3.033-4.3,2.977a.939.939,0,0,1-1.039-.758c-.758-2.219-1.545-4.437-2.3-6.628a7.815,7.815,0,0,0-.337-.73c-.253,3.819-.477,7.526-.7,11.233H93.578c-.9-1.741-1.825-3.482-2.724-5.223-.73-1.432-1.039-1.545-2.752-1.067v6.291H78.834c-.309-1.151-.59-2.3-.955-3.426a1.137,1.137,0,0,0-.786-.59c-1.545-.056-3.089-.056-4.606,0-.253,0-.674.2-.73.365-.365,1.208-.646,2.415-.927,3.623C69.23,114.519,67.629,114.519,66,114.519Zm22.129-10.5c1.4-.14,2.949.477,3.932-.983a2.371,2.371,0,0,0,.084-2.7c-.983-1.432-2.556-.871-4.016-.983Zm-11.514,2.64c-.618-2.247-1.179-4.381-1.8-6.684-.618,2.331-1.208,4.465-1.8,6.684Z" transform="translate(-47.465 -68.519)" fill="#fff"/>
  <path id="Path_1427" data-name="Path 1427" d="M0,25.05H4.156c.955-3.37,3-10.643,3-10.643S16.007,5.7,20.023,1.882c.253-.225.505-.449.786-.7.337.281.646.505.955.758,4.381,3.623,8.734,7.274,13.115,10.9a2.858,2.858,0,0,0,1.488.646Q46.983,14.744,57.6,15.951c3.061.365,6.15.7,9.211,1.039-2.64-2.05-5.336-3.932-8.032-5.785a2.577,2.577,0,0,0-.786-.253Q43.838,6.908,29.684,2.893C26.37,1.938,23.084.955,19.8,0h-.421C15.895,3.061,8.116,10.026,4.465,12.834Z" fill="#fff"/>
  <path id="Path_1428" data-name="Path 1428" d="M32.712,114.825a6.559,6.559,0,0,1-.112-.73V96.4c0-.2.028-.421.056-.7H44.2v3.9H37.4v4.016h5.589v4.044H37.318v5.364c0,.59-.084,1.179-.14,1.769C35.661,114.825,34.173,114.825,32.712,114.825Z" transform="translate(-23.445 -68.825)" fill="#fff"/>
  <path id="Path_1429" data-name="Path 1429" d="M0,116.5H7.947v1.825h-3v2.808h3v1.91H1.8v2.331h6.15v1.966H1.685v2.415H0v-8.65H3.089v-2.724H0Z" transform="translate(0 -83.783)" fill="#fff"/>
  <path id="Path_1430" data-name="Path 1430" d="M0,95.356H1.685V98.3H3.117V96.058H4.83V98.3h1.46v-3H7.947v5.139H0C0,98.726,0,97.041,0,95.356Z" transform="translate(0 -68.537)" fill="#fff"/>
  <path id="Path_1431" data-name="Path 1431" d="M129.6,54.5c2.724.253,5.308.505,7.863.786,7.442.758,14.884,1.516,22.3,2.219a1.217,1.217,0,0,1,1.264.955c.674,2.05,1.4,4.1,2.162,6.263H132.6C131.622,61.408,130.639,58.038,129.6,54.5Z" transform="translate(-93.204 -39.195)" fill="#fff"/>
  <path id="Path_1432" data-name="Path 1432" d="M72.7,61.783v-4.83c1.685-.084,3.314-.168,5.027-.253v5.083Z" transform="translate(-52.284 -40.777)" fill="#fff"/>
  <path id="Path_1433" data-name="Path 1433" d="M77.727,76.2v4.325H72.7V76.2Z" transform="translate(-52.284 -54.801)" fill="#fff"/>
  <path id="Path_1434" data-name="Path 1434" d="M53.7,62.43V57.825c1.657-.084,3.23-.168,4.886-.225v4.83Z" transform="translate(-38.619 -41.424)" fill="#fff"/>
  <path id="Path_1435" data-name="Path 1435" d="M58.543,76.4v4.269H53.6V76.4Z" transform="translate(-38.548 -54.945)" fill="#fff"/>
</svg>
