<svg xmlns="http://www.w3.org/2000/svg" width="74.832" height="36.805" viewBox="0 0 74.832 36.805">
  <g id="Group_350" data-name="Group 350" transform="translate(0.061 0.005)">
    <path id="Path_1436" data-name="Path 1436" d="M41.5,36.8c-2.519-2.6-4.954-5.059-7.328-7.577a2.045,2.045,0,0,0-2.082-.687c-8.2,1.374-16.4,2.706-24.606,4.08-3.83.645-6.641-1.561-6.849-5.454l-.687-13.3A6.681,6.681,0,0,1,6.114,6.47c4.372-.52,8.764-.9,13.135-1.332,5.891-.6,11.782-1.187,17.674-1.79L52.432,1.786C58.2,1.2,63.943.662,69.71.037c3.123-.333,5.142,1.291,5.059,4.455-.083,3.143-.333,6.308-.52,9.451a31.742,31.742,0,0,1-.312,3.726A5.787,5.787,0,0,1,68.9,22.5c-6.141,1.02-12.3,2.019-18.444,3.081a2.343,2.343,0,0,0-1.395.853c-2.29,3.1-4.517,6.224-6.766,9.347C42.065,36.092,41.815,36.384,41.5,36.8ZM56.637,17.752l6.911-1.166.021-.375a2.463,2.463,0,0,0,3.331-.6,5.99,5.99,0,0,0,.937-5.787A2.2,2.2,0,0,0,64.3,8.968c-.208.167-.4.354-.708.625,0-.791-.021-1.457,0-2.123.021-.645.062-1.291.1-1.936a2.328,2.328,0,0,0-.4-.062c-.541.062-1.1.125-1.645.208-1.54.208-1.54.208-1.353,1.957h.9v7.681c-.729.1-1.291.167-1.811.25V9.488c-1.082.167-2.144.312-3.227.458v1.811h.9c0,1.062.021,2.061,0,3.06-.021.853-.687,1.145-1.332,1.166-.812.042-.6-.666-.6-1.166-.021-1.54,0-3.1,0-4.746-1.062.146-2.144.312-3.206.458v1.853h.916c0,1.395-.042,2.706,0,4.018a1.73,1.73,0,0,0,2.56,1.707,8.812,8.812,0,0,0,1.291-.666Zm-9.826-.208c0-1.145.021-2.165,0-3.206-.021-.937.645-1.228,1.332-1.249.9-.042.625.749.625,1.228.021,1.582,0,3.164,0,4.809.645-.1,1.249-.167,1.874-.271,1.645-.291,1.645-.291,1.332-2-.291-.021-.562-.042-.916-.062,0-1.52.1-2.977-.021-4.413a1.69,1.69,0,0,0-2.477-1.5,16.9,16.9,0,0,0-1.728.874V7.615c-1.249.167-2.394.333-3.539.5v1.894h1v7.952c-1.353.291-1.436.458-1.062,2.1,1.478-.25,2.956-.5,4.455-.729V17.523C47.394,17.523,47.144,17.523,46.811,17.544ZM21.852,21.52c-.749-.333-1.332-.583-2.04.291a3.092,3.092,0,0,1-3.372,1.062,2.5,2.5,0,0,1-1.769-2.165c2.456-.375,4.83-.749,7.161-1.124-.021-2.54-1.436-4.226-3.622-4.455a5.3,5.3,0,0,0-5.371,4.018c-.541,2.394.375,4.351,2.415,5.1A5.66,5.66,0,0,0,21.852,21.52Zm10.45.291c1.124-.187,2.186-.333,3.227-.52,1.228-.208,1.249-.271.9-1.582-.354.021-.729.062-1.166.1V16.441a2.409,2.409,0,0,1,1.936-2.519c.791-.229,1.249.062,1.27.874.042,1.145.021,2.29.021,3.435v2.6c1.041-.187,1.915-.333,2.769-.5V19H40.025c0-1.582.042-3.143-.021-4.684-.062-1.874-1.27-2.581-2.956-1.769A18.625,18.625,0,0,0,35.2,13.714v-4.6c-1.062.146-2.019.271-2.935.4v1.457c.5-.021.937-.042,1.395-.062v9.139c-.458.125-.9.229-1.332.333C32.3,20.875,32.3,21.312,32.3,21.812Zm-2.144-2.56a12.139,12.139,0,0,1-.9,1.207,2.321,2.321,0,0,1-3.622,0,3.637,3.637,0,0,1,.4-4.413,2.175,2.175,0,0,1,3.56.416,1.211,1.211,0,0,0,.916.333c.208-.021.562-.333.562-.541.062-.916.021-1.832.021-2.727l-.187-.25c-1.02.937-2.123.583-3.206.437a2.361,2.361,0,0,0-.52.062,5.059,5.059,0,0,0-3.872,4.913c-.021,2.207,1.27,3.955,3.1,4.205A4.568,4.568,0,0,0,31.3,19.688C30.907,19.522,30.532,19.4,30.158,19.251ZM7.779,16.67c-.437.083-.749.167-1.166.25.021.541.062,1.02.083,1.52.458-.021.77-.042,1.207-.062,0,.5-.021.916,0,1.311.062,1.478.1,2.977.25,4.455.1,1.145,1,1.624,2.227,1.353,1.249-.271,1.374-.541,1.082-1.5-.666-.271-1.5-.416-1.52-.666-.187-1.728-.229-3.5-.312-5.246.645-.125,1.145-.229,1.686-.333-.021-.52-.042-.958-.062-1.416H9.611c-.062-.9-.125-1.769-.187-2.894C8.487,14.547,7.321,15.171,7.779,16.67Z" transform="translate(0 0)" fill="#fff"/>
    <path id="Path_1437" data-name="Path 1437" d="M71.2,82.426a2.936,2.936,0,0,1,2.581-2.81c1.311-.146,2.144.416,2.81,1.978C74.8,81.864,73.053,82.134,71.2,82.426Z" transform="translate(-56.426 -63.029)" fill="#fff"/>
    <ellipse id="Ellipse_92" data-name="Ellipse 92" cx="1.499" cy="1.957" rx="1.499" ry="1.957" transform="translate(63.548 10.675)" fill="#fff"/>
  </g>
</svg>
